<mxfile host="seqgen" agent="seqgen" version="26.2.2"><diagram name="Diagram" id="1001"><mxGraphModel dx="0" dy="0" grid="1" gridSize="10" guides="1" tooltips="1" connect="1" arrows="1" fold="1" page="0" pageScale="1" pageWidth="850" pageHeight="1100" background="#ffffff" math="0" shadow="0"><root><mxCell id="0" /><mxCell id="1" parent="0" /><mxCell id="1002" value="A" parent="1" style="shape=umlLifeline;perimeter=lifelinePerimeter;whiteSpace=wrap;html=1;container=1;dropTarget=0;collapsible=0;recursiveResize=0;outlineConnect=0;portConstraint=eastwest;newEdgeStyle={&quot;curved&quot;:0,&quot;rounded&quot;:0};" vertex="1"><mxGeometry x="0" y="0" width="160" height="280" as="geometry" /></mxCell><mxCell id="1003" value="B" parent="1" style="shape=umlLifeline;perimeter=lifelinePerimeter;whiteSpace=wrap;html=1;container=1;dropTarget=0;collapsible=0;recursiveResize=0;outlineConnect=0;portConstraint=eastwest;newEdgeStyle={&quot;curved&quot;:0,&quot;rounded&quot;:0};" vertex="1"><mxGeometry x="200" y="0" width="160" height="280" as="geometry" /></mxCell><mxCell id="1004" value="default" parent="1" style="shape=note;whiteSpace=wrap;html=1;backgroundOutline=1;darkOpacity=0.05;size=10;align=left;spacing=8;" vertex="1"><mxGeometry x="80.0" y="60" width="100" height="40" as="geometry" /></mxCell><mxCell id="1005" value="a larger note with&lt;br/&gt;multiple lines&lt;br/&gt;&lt;br/&gt;in it" parent="1" style="shape=note;whiteSpace=wrap;html=1;backgroundOutline=1;darkOpacity=0.05;size=10;align=left;spacing=8;" vertex="1"><mxGeometry x="280.0" y="60" width="150" height="80" as="geometry" /></mxCell><mxCell id="1006" value="note follows vertical offset" parent="1" style="shape=note;whiteSpace=wrap;html=1;backgroundOutline=1;darkOpacity=0.05;size=10;align=left;spacing=8;" vertex="1"><mxGeometry x="80.0" y="160" width="100" height="80" as="geometry" /></mxCell><mxCell id="1007" value="note with keyword end" parent="1" style="shape=note;whiteSpace=wrap;html=1;backgroundOutline=1;darkOpacity=0.05;size=10;align=left;spacing=8;" vertex="1"><mxGeometry x="280.0" y="160" width="100" height="40" as="geometry" /></mxCell><mxCell id="1008" value="moved note" parent="1" style="shape=note;whiteSpace=wrap;html=1;backgroundOutline=1;darkOpacity=0.05;size=10;align=left;spacing=8;" vertex="1"><mxGeometry x="220.0" y="220" width="100" height="40" as="geometry" /></mxCell></root></mxGraphModel></diagram></mxfile>